<svg width="72.000000" height="60.000000" viewBox="0 0 72 60" fill="none" xmlns="http://www.w3.org/2000/svg" xmlns:xlink="http://www.w3.org/1999/xlink">
	<desc>
			Created with Pixso.
	</desc>
	<defs/>
	<path id="Vector" d="M37.18 21.41C35.07 19.57 34.94 17.86 36.65 15.74C36.89 15.44 37.16 15.15 37.37 14.82C38.94 12.54 38.41 10.27 36.01 9.02C35.82 8.91 35.61 8.8 35.37 8.69C35.39 8.83 35.39 8.91 35.42 8.96C36.22 10.54 36.06 11.97 34.94 13.3C34.75 13.52 34.59 13.76 34.46 14.01C32.43 17.29 34.43 20.81 37.18 21.41Z" fill="#C99E71" fill-opacity="1.000000" fill-rule="nonzero"/>
	<path id="Vector" d="M33.02 18.62C31.79 17.29 31.77 16.12 32.86 14.71C33.02 14.52 33.18 14.31 33.31 14.09C34.33 12.57 34.06 10.97 32.65 10.05C32.54 9.97 32.41 9.89 32.27 9.8C32.27 9.89 32.27 9.94 32.3 9.99C32.75 11.08 32.59 12.08 31.9 12.98C31.79 13.11 31.69 13.27 31.58 13.44C30.3 15.66 31.39 18.16 33.02 18.62Z" fill="#C99E71" fill-opacity="1.000000" fill-rule="nonzero"/>
	<path id="Vector" d="M38.2 19.81C37.85 19.21 37.69 18.59 38.04 17.94C38.2 17.64 38.41 17.37 38.6 17.13C39.02 16.56 39.1 15.96 38.84 15.36C38.41 15.96 38.01 16.53 37.58 17.13C36.78 18.21 36.94 19.1 38.2 19.81Z" fill="#C99E71" fill-opacity="1.000000" fill-rule="nonzero"/>
	<path id="Vector" d="M7.49 36.76L7.49 35.32L7.41 35.29C6.88 35.08 6.37 34.94 5.86 34.94C5.12 34.94 4.5 35.21 4.08 35.75C3.62 36.3 3.41 37.03 3.38 37.95C3.38 38.87 3.6 39.63 4.02 40.15C4.45 40.69 5.06 40.96 5.81 40.99L5.84 40.99C6.37 40.99 6.88 40.85 7.38 40.58L7.46 40.55L7.46 39.69L7.28 39.79C6.77 40.07 6.29 40.17 5.86 40.17C5.36 40.17 4.98 39.98 4.72 39.63C4.45 39.28 4.29 38.71 4.32 37.92C4.32 37.19 4.45 36.65 4.74 36.3C5.01 35.94 5.38 35.78 5.89 35.78C6.21 35.78 6.5 35.84 6.72 35.92L6.72 36.78L7.49 36.76Z" fill="#C99E71" fill-opacity="1.000000" fill-rule="nonzero"/>
	<path id="Vector" d="M11.81 41.04C12.51 41.04 13.07 40.77 13.47 40.23C13.87 39.69 14.08 38.93 14.08 37.98C14.08 37.08 13.89 36.35 13.52 35.83C13.15 35.29 12.61 35.02 11.92 35.02C11.23 35.02 10.67 35.29 10.24 35.83C9.84 36.38 9.63 37.11 9.63 38.03C9.63 38.95 9.81 39.71 10.21 40.25C10.61 40.74 11.15 41.01 11.81 41.04ZM10.91 36.32C11.15 36 11.47 35.81 11.89 35.83C12.32 35.83 12.64 36 12.85 36.35C13.09 36.7 13.2 37.24 13.2 37.98C13.2 38.74 13.07 39.31 12.83 39.66C12.59 40.01 12.27 40.2 11.87 40.2C11.44 40.2 11.15 40.01 10.91 39.66C10.67 39.28 10.56 38.71 10.56 37.98C10.53 37.22 10.67 36.65 10.91 36.32Z" fill="#C99E71" fill-opacity="1.000000" fill-rule="nonzero"/>
	<path id="Vector" d="M16.21 40.17L16.21 40.96L18.4 40.99L18.4 40.2L17.71 40.2L17.71 38.49L18.56 38.49L18.56 39.12L19.31 39.12L19.34 37.22L18.56 37.22L18.56 37.73L17.71 37.71L17.73 35.92L19.26 35.92L19.26 36.65L20.03 36.65L20.06 35.16L16.27 35.13L16.27 35.92L16.85 35.92L16.83 40.17L16.21 40.17Z" fill="#C99E71" fill-opacity="1.000000" fill-rule="nonzero"/>
	<path id="Vector" d="M21.79 40.23L21.79 41.01L23.95 41.01L23.98 40.23L23.26 40.23L23.28 38.55L24.11 38.55L24.11 39.17L24.88 39.17L24.88 37.25L24.14 37.25L24.14 37.76L23.28 37.76L23.28 35.97L24.83 35.97L24.8 36.7L25.6 36.7L25.63 35.21L21.82 35.16L21.82 35.94L22.43 35.94L22.4 40.23L21.79 40.23Z" fill="#C99E71" fill-opacity="1.000000" fill-rule="nonzero"/>
	<path id="Vector" d="M27.37 40.25L27.34 41.04L31.23 41.07L31.26 39.58L30.46 39.58L30.46 40.28L28.83 40.28L28.83 38.49L29.58 38.49L29.58 39.12L30.35 39.12L30.35 37.19L29.61 37.19L29.61 37.71L28.86 37.71L28.86 36L30.38 36.02L30.38 36.73L31.18 36.76L31.18 35.24L27.39 35.21L27.39 36L28.01 36L27.95 40.28L27.37 40.25Z" fill="#C99E71" fill-opacity="1.000000" fill-rule="nonzero"/>
	<path id="Vector" d="M33.23 40.31L33.21 41.1L37.1 41.12L37.13 39.63L36.33 39.6L36.33 40.34L34.7 40.31L34.7 38.52L35.45 38.52L35.45 39.14L36.22 39.14L36.22 37.25L35.47 37.25L35.47 37.76L34.7 37.73L34.73 36.05L36.25 36.05L36.25 36.78L37.05 36.78L37.05 35.29L33.26 35.27L33.26 36.02L33.87 36.05L33.82 40.31L33.23 40.31Z" fill="#C99E71" fill-opacity="1.000000" fill-rule="nonzero"/>
	<path id="Vector" d="M48.79 36.97L48.79 35.62L48.71 35.59C48.28 35.37 47.83 35.27 47.32 35.27C46.73 35.27 46.28 35.4 45.93 35.7C45.59 36 45.4 36.38 45.4 36.87C45.4 37.14 45.45 37.38 45.53 37.57C45.64 37.76 45.75 37.92 45.91 38.06C46.07 38.19 46.23 38.3 46.41 38.38C46.6 38.47 46.79 38.55 46.95 38.6C47.13 38.68 47.29 38.76 47.45 38.82C47.59 38.9 47.69 38.95 47.8 39.03C47.88 39.12 47.96 39.2 47.99 39.31C48.04 39.39 48.07 39.52 48.07 39.66C48.07 39.93 47.99 40.12 47.8 40.28C47.61 40.44 47.35 40.5 47.03 40.5C46.71 40.5 46.44 40.47 46.23 40.39L46.23 39.58L45.43 39.58L45.43 40.96L45.51 40.99C45.96 41.18 46.44 41.29 46.97 41.29L47 41.29C47.59 41.29 48.07 41.12 48.41 40.82C48.79 40.53 48.97 40.09 48.97 39.58C48.97 39.28 48.92 39.03 48.84 38.84C48.76 38.65 48.63 38.49 48.47 38.36C48.33 38.22 48.15 38.11 47.96 38.03C47.77 37.95 47.59 37.87 47.4 37.79C47.21 37.71 47.05 37.65 46.89 37.57C46.76 37.52 46.63 37.43 46.55 37.38C46.47 37.3 46.39 37.22 46.33 37.14C46.28 37.06 46.25 36.95 46.25 36.81C46.25 36.59 46.33 36.43 46.49 36.27C46.65 36.11 46.92 36.02 47.24 36.05C47.51 36.05 47.75 36.11 47.93 36.16L47.93 36.95L48.79 36.97Z" fill="#C99E71" fill-opacity="1.000000" fill-rule="nonzero"/>
	<path id="Vector" d="M50.95 40.44L50.95 41.23L53.03 41.26L53.03 40.47L52.41 40.47L52.44 38.66L54.9 38.68L54.9 40.47L54.28 40.47L54.28 41.26L56.34 41.26L56.36 40.5L55.75 40.5L55.78 36.21L56.39 36.21L56.39 35.43L54.31 35.43L54.31 36.19L54.92 36.21L54.9 37.9L52.44 37.87L52.44 36.19L53.05 36.19L53.05 35.4L51 35.4L50.97 36.19L51.59 36.19L51.56 40.44L50.95 40.44Z" fill="#C99E71" fill-opacity="1.000000" fill-rule="nonzero"/>
	<path id="Vector" d="M60.68 41.42C61.38 41.42 61.94 41.15 62.34 40.61C62.74 40.07 62.95 39.31 62.95 38.36C62.95 37.46 62.76 36.73 62.39 36.21C62.02 35.67 61.48 35.4 60.79 35.4C60.1 35.4 59.54 35.67 59.11 36.21C58.71 36.76 58.5 37.49 58.5 38.41C58.5 39.33 58.68 40.09 59.08 40.63C59.48 41.12 60.02 41.39 60.68 41.42ZM59.78 36.7C60.02 36.38 60.34 36.21 60.76 36.21C61.19 36.21 61.51 36.38 61.72 36.73C61.96 37.08 62.07 37.62 62.07 38.36C62.07 39.12 61.94 39.69 61.7 40.04C61.46 40.39 61.14 40.58 60.74 40.58C60.31 40.58 60.02 40.39 59.78 40.04C59.54 39.66 59.43 39.09 59.43 38.36C59.43 37.6 59.54 37.03 59.78 36.7Z" fill="#C99E71" fill-opacity="1.000000" fill-rule="nonzero"/>
	<path id="Vector" d="M65.11 40.55L65.11 41.34L67.3 41.37L67.3 40.58L66.61 40.58L66.61 39.09L66.95 39.09C67.59 39.09 68.1 38.93 68.45 38.63C68.79 38.3 68.98 37.84 68.98 37.22C68.98 36.68 68.82 36.27 68.53 35.97C68.23 35.67 67.75 35.54 67.14 35.54L65.19 35.51L65.19 36.3L65.81 36.3L65.78 40.58L65.11 40.55ZM66.98 38.3L66.61 38.3L66.63 36.3L67.06 36.3C67.43 36.3 67.7 36.38 67.86 36.51C68.02 36.65 68.1 36.89 68.1 37.27C68.1 37.65 67.99 37.9 67.83 38.06C67.59 38.22 67.33 38.3 66.98 38.3Z" fill="#C99E71" fill-opacity="1.000000" fill-rule="nonzero"/>
	<path id="Vector" d="M63.3 31.82C63.43 31.71 63.54 31.6 63.67 31.5C65.11 30.2 65.09 29.57 63.54 28.32C60.44 25.86 60.44 25.86 62.66 22.55C63.67 21 63.43 20 61.7 19.48C58.39 18.48 57.54 18.86 59.08 14.14C59.11 14.06 59.16 13.95 59.19 13.87C59.54 12.6 59.16 11.97 57.83 11.81C57 11.7 56.15 11.78 55.32 11.73C53.59 11.65 53.19 11.19 53.13 9.42C53.13 9.02 53.13 8.61 53.13 8.23C53.13 5.57 52.73 5.25 50.2 5.85C46.73 6.66 46.73 6.66 45.45 3.24C44.62 1.05 44.22 0.91 42.3 2.18C39.18 4.22 39.18 4.22 36.81 1.29C35.42 -0.45 34.81 -0.45 33.45 1.34C31.02 4.52 31.15 4.41 28.03 2.24C26.06 0.86 25.52 1.13 24.75 3.46C23.87 6.14 23.55 7.36 20.46 5.93C20.24 5.82 19.98 5.85 19.74 5.79C17.68 5.3 17.17 5.6 17.2 7.72C17.23 11.84 16.75 11.81 13.09 11.78C11.15 11.78 10.69 12.46 11.23 14.31C12.32 18.16 12.32 18.16 8.61 19.51C6.88 20.14 6.56 21.06 7.6 22.55C10 26.02 10.05 25.94 6.66 28.43C5.2 29.52 5.2 30.36 6.58 31.5C6.74 31.63 6.9 31.74 7.06 31.88L0 31.88L0 32.99L71.89 32.99L71.89 31.88L63.3 31.88L63.3 31.82ZM11.76 29.9C11.79 16.85 22.3 6.25 35.13 6.22C48.01 6.22 58.58 16.96 58.5 30.09C58.5 30.66 58.47 31.25 58.42 31.82L49.69 31.82C52.31 30.01 53.59 27.43 52.57 25.83C52.01 24.93 50.81 24.55 49.32 24.74C49.37 24.37 49.43 23.99 49.45 23.61C49.51 23.14 49.35 22.68 49.03 22.33C48.71 21.98 48.25 21.76 47.77 21.76L23.5 21.76C23.02 21.76 22.56 21.98 22.24 22.33C21.92 22.68 21.79 23.12 21.82 23.61C22.08 26.72 23.18 29.54 24.83 31.82L11.84 31.82C11.79 31.2 11.76 30.55 11.76 29.9ZM46.57 31.6C47.64 30.06 48.47 28.3 48.97 26.45C49.99 26.21 50.81 26.34 51.11 26.81C51.35 27.19 51.24 27.81 50.84 28.49C50.39 29.25 49.61 30.01 48.65 30.63C47.96 31.09 47.27 31.42 46.57 31.6ZM9.81 29.41C10.13 15.17 21.55 4.11 35.45 4.25C49.35 4.38 60.98 16.37 60.39 31.17C60.39 31.39 60.36 31.6 60.36 31.82L59.3 31.82C59.35 31.23 59.38 30.6 59.38 29.98C59.4 16.47 48.52 5.38 35.26 5.36C21.84 5.33 10.93 16.34 10.91 29.92C10.91 30.57 10.93 31.2 10.99 31.82L9.87 31.82C9.81 31.04 9.81 30.22 9.81 29.41Z" fill="#C99E71" fill-opacity="1.000000" fill-rule="nonzero"/>
	<path id="Vector" d="M0 44.92L11.41 44.92C10.61 48.06 10.85 48.09 14.56 48.2C16.64 48.25 17.07 48.69 17.17 50.75C17.36 54.87 17.36 54.87 21.23 53.73C22.99 53.22 23.63 53.51 24.3 55.22C24.56 55.87 24.7 56.55 24.94 57.2C25.44 58.58 26.16 58.88 27.45 58.15C28.22 57.72 28.89 57.12 29.63 56.66C30.57 56.06 31.45 55.95 32.19 57.04C32.73 57.8 33.31 58.56 33.93 59.26C34.75 60.24 35.53 60.24 36.38 59.26C36.94 58.64 37.4 57.93 37.93 57.28C38.94 56.04 39.64 55.93 40.94 56.82C41.64 57.28 42.3 57.77 43.02 58.21C44.12 58.91 44.87 58.56 45.29 57.34C45.56 56.58 45.91 55.85 46.12 55.09C46.47 53.73 47.29 53.3 48.55 53.6C49.32 53.79 50.04 54.11 50.79 54.33C52.33 54.79 53.16 54.22 53.24 52.57C53.27 51.78 53.27 50.97 53.27 50.15C53.24 48.93 53.88 48.31 55.03 48.2C55.51 48.15 56.02 48.2 56.84 48.2C59.3 48.39 60.02 47.6 58.92 44.89L72 44.89L72 43.78L0 43.78L0 44.92ZM53.24 44.92C48.92 50.31 42.33 53.76 35.05 53.65C27.79 53.65 21.28 50.23 17.01 44.92L53.24 44.92ZM35.02 55.6C26.51 55.6 19.1 51.35 14.53 44.89L15.92 44.89C20.35 50.75 27.31 54.52 35.15 54.52C42.92 54.6 49.91 50.78 54.34 44.89L55.62 44.89C50.95 51.43 43.34 55.74 35.02 55.6Z" fill="#C99E71" fill-opacity="1.000000" fill-rule="nonzero"/>
</svg>
